<svg class="page-header__logo-image" role="img" viebox="0 0 203 60" id="logo-adaptive" xmlns="http://www.w3.org/2000/svg" x="0" y="0">
  <style>
    .st0 {
      fill: #fdc305;
    }

    .st1 {
      fill: #f06351;
    }

    .st2,
    .st3 {
      fill: #111111;
    }

    .st4 {
      fill: #444444;
    }

    .tablet,
    .desktop {
      display: none;
    }

    .title {
      transform: scale(1.2) translate(-13px, -14px);
    }

    .mobile {
      transform: translateY(-2px);
    }

    @media (min-width: 768px) {
      .mobile {
        display: none;
      }

      .tablet {
        display: inline-block;
        transform: translateY(1px);
      }

      .title {
        transform: scale(1) translate(0.6px, 1.5px);
      }

      .st3 {
        fill: #444444;
      }
    }

    @media (min-width: 1300px) {
      .mobile,
      .tablet {
        display: none;
      }

      .desktop {
        display: inline-block;
        transform: translateY(-1px);
      }

      .title {
        transform: scale(1.4) translate(-28.3px, -8px);
      }
    }
  </style>
  <g class="mobile">
    <path class="st0" d="M6.1 20.7l.1-2.3c6.7-.9 13.4-1.4 20.2-1.3 0 .6 0 1.2-.1 1.8 0 0 2.9-1.3 6-1.8-2.4-6.3-8.5-10.8-15.6-10.8C8.4 6.3 1.5 12.4.2 20.4c2.2.1 5.9.3 5.9.3zM27.2 24.2c-1.2 1.3-1.4 1.2-1.4 3.5v9.2a16.62 16.62 0 007.1-17c-1.7 1.1-4.7 3.2-5.7 4.3zM6.4 25.7s-3.8-1.4-5.2-1.8L0 23.6c.2 6 3.7 11.3 8.7 14L6.4 25.7z"/>
    <path class="st1" d="M26.3 17.1C26.4 8.6 24.9.6 24.9.6s-.2-1.2-.9-.2c-.7 1.1-1.2 3.9-1.2 3.9-7.4-.4-12.8.3-12.8.3C9.2 2 7.9.8 7.2 1c-.7.3-.7 3.4-.7 3.4l-.4 14.1c6.7-1 13.5-1.4 20.2-1.4z"/>
    <path d="M12.4 14c0-.1 1 .7 1.4.9s.6.4.6.6c0 .2-.3.3-.6.3s-.9-.1-1-.3H14c.1.1-1.3-1-1.6-1.5zM19.9 14.1s-1 1.3-1.1 1.3c0 .1-.2.3.2.3s1.1-.2 1.2-.3.1-.2-.1-.2-.7 0-1 .1l.8-1.2s.1-.1 0 0zM16.8 20.2s.8-.4 1.1-1c.3-.7 0-.9-.4-1-.5-.1-1.3 0-1.7.3-.4.4-.3.7-.1 1 .2.2.8.6 1.1.7z"/>
    <path class="st1" d="M16.3 21.5s-.2.4-.5.6c-.2.2-.6.4-1 .4-.6 0-1.1-.2-1.5-.4-.2-.1-.4-.3-.5-.4-.2-.2-.4-.3-.4-.3s.7 4.1 2.6 4.7c1.8.6 2.1-.7 2.2-1.1 0-.3 0-2.1-.8-3.2.1-.4 0-.2-.1-.3z"/>
    <path d="M14.7 22.6c-1.3 0-2.3-1.4-2.3-1.4V21h.2s1 1.3 2.1 1.3c.6 0 1.1-.3 1.6-1l.1-.2.1.2s.4.8 1 .8c.5 0 1.1-.4 1.6-1.3 0-.1.1-.1.2 0 .1 0 .1.1 0 .2-.6 1-1.3 1.4-1.9 1.4s-.9-.5-1.1-.8c-.4.7-1 1-1.6 1z"/>
    <path class="st1" d="M26.2 18.9s-2.5 2.2-5.1 5.2-5.2 4.9-5.2 4.9c-.2-.5-1.6-1.5-1.6-1.5s-3.1-2.1-5.2-3.8c-1.2-1-2.3-2.2-3.1-3-.3 0-1.1-.1-2-.1 4.7 7 12 8.8 12 8.8.9-.1 3.3-1.9 5.1-3.3 1.8-1.4 4.8-4.5 5.9-5.9.6-.7.9-1.4 1.1-2l-1.9.7z"/>
  </g>
  <g class="tablet">
    <path
    d="M59.6 21.7C54.2 8.7 39.3 2.6 26.3 8S7.1 28.4 12.6 41.4c3.6 8.5 11.3 14.1 19.8 15.4-.6-2.1-1.2-4.4-1.7-6.8 1.5 1 3.1 1.8 4.7 2.5 0 0 .1 2.1.3 4.5 1.8 0 3.5-.1 5.3-.5v-.8c.3-1.9 1.1-5.2 1.2-7.4 1.1-1.1 2.1-2.3 2.9-3.7 0 .1 0 .3-.1.4-.6 4.2-1.7 8.8-2.4 10-.2.4-.5.9-.8 1.1 1.4-.3 2.7-.8 4.1-1.3 13-5.1 19.2-20.1 13.7-33.1zm-1.4 3.8c-.4.4-1.3.7-1.5-.6-.1-1.3-.2-2.2-.2-2.2s-1.9-3.4-2.6-3.5c-.7 0-5.8 3.5-7.1 4.9-1.2 1.3-1.4 1.2-1.4 3.5 0 1.7.2 8.1.1 13.1l-8.1 2.2c-5.9 1.6-7.8 1.8-7.8 1.8l-1-5.8L26 25.8s-3.8-1.4-5.2-1.8c-1.4-.4-2.3-.7-4 .6-1.8 1.3-1.7 3.8-1.7 3.8s.4 1 .5 1.4c0 .5-1.2.4-2 .4s-.9-1.4-.3-3.1c.6-1.7 1.9-3.7 1.9-3.7s1.2-2.3 2.1-2.9c0 0 .1-.3 1.2-.2 1.1.1 7.2.4 7.2.4l.1-2.3c6.7-.9 13.4-1.4 20.2-1.3 0 .6 0 1.2-.1 1.8 0 0 4.4-2 8.1-2 0 0 .4 0 .8.4.3.4 2.4 3 2.6 3.4.2.4 1.2 1.7 1.8 3-.2 0-.6 1.4-1 1.8z"
    fill="#fdc305" />
  <path class="st1"
    d="M56.2 19.4c.5.6.9 1.1 1 1.3.2.4 1.2 1.7 1.8 3 0 0-.4 1.3-.9 1.8-.4.4-1.3.7-1.5-.6-.1-1.3-.2-2.2-.2-2.2s-1.9-3.4-2.6-3.5c-.7 0-5.8 3.5-7.1 4.9-1.2 1.3-1.4 1.2-1.4 3.5 0 1.5.2 6.6.1 11.2 1.8.2 4.4.7 5.2 1.9 0 0-.3-7.1 7.8-3.4 0 0 .3-9.7 11.4-7.2.1 0-5.6-7-13.6-10.7zM45.7 17.1C45.8 8.6 44.3.6 44.3.6s-.1-1.3-.9-.2c-.7 1.1-1.2 3.9-1.2 3.9-7.4-.4-12.8.3-12.8.3-.8-2.7-2.2-3.9-2.9-3.6-.7.3-.7 3.3-.7 3.3l-.3 14.1c6.7-.9 13.5-1.3 20.2-1.3z" />
  <path
    d="M45.2 44.8c.1-1.1.2-2.5.2-4L37.3 43c-5.9 1.6-7.8 1.8-7.8 1.8l1.1 5c0 .1 0 .2.1.3 1.5 1 3.1 1.8 4.7 2.5 4.4-2.2 6.8-4.1 6.8-4.1v.1c1.2-1.2 2.2-2.5 3-3.8z"
    fill="#e55645" />
  <path
    d="M31.9 14c0-.1 1 .7 1.4.9s.6.4.6.6-.3.3-.6.3-.9-.1-1-.3h1.2c0 .1-1.4-1-1.6-1.5zM39.3 14.1s-1 1.3-1.1 1.3-.2.3.2.3 1.1-.2 1.2-.3.1-.2-.1-.2-.7 0-1 .1l.8-1.2c.1 0 .1-.1 0 0zM36.2 20.2s.8-.4 1.1-1 0-.9-.4-1c-.5-.1-1.3 0-1.7.3-.4.4-.3.7-.1 1 .2.2.8.6 1.1.7z" />
  <path class="st1"
    d="M35.8 21.4s-.2.4-.5.6c-.2.2-.6.4-1 .4-.6 0-1.1-.2-1.5-.4-.2-.1-.4-.3-.5-.4-.2-.2-.4-.3-.4-.3s.7 4.1 2.6 4.7c1.8.6 2.1-.7 2.2-1.1 0-.3 0-2.1-.8-3.2 0-.3 0-.1-.1-.3z" />
  <path
    d="M34.2 22.6c-.1 0-.1 0 0 0-1.3 0-2.3-1.4-2.3-1.4V21h.2s1 1.3 2.1 1.3c.6 0 1.1-.3 1.6-1l.1-.2.1.2s.4.8 1 .8c.5 0 1.1-.4 1.6-1.3 0-.1.1-.1.2 0 .1 0 .1.1 0 .2-.6 1-1.3 1.4-1.9 1.4-.6 0-.9-.5-1.1-.8-.4.7-1 1-1.6 1z" />
  <path class="st3"
    d="M41.1 29.2L38 30.5l1.1-5.6-7.5 9.7 3.1-1.3-1.1 5.6 7.5-9.7zM33.7 33l4.1-5.4-.8 4 2-.8-4.1 5.4.8-4-2 .8z" />
  <path class="st1"
    d="M45.7 18.9s-2.5 2.2-5.1 5.2C38.1 27 35.3 29 35.3 29c-.2-.5-1.6-1.5-1.6-1.5s-3.1-2.1-5.2-3.8c-1.2-1-2.3-2.2-3.1-3-.3 0-1.1-.1-2-.1 4.7 7 12 8.8 12 8.8.9-.1 3.3-1.9 5.1-3.3s4.8-4.5 5.9-5.9c.6-.7.9-1.4 1.1-2-1.1.4-1.8.7-1.8.7zM25.8 25.7s-3.8-1.4-5.2-1.8c-1.4-.4-2.3-.7-4 .6-1.8 1.3-1.7 3.8-1.7 3.8s.4 1 .5 1.4c0 .5-1.2.4-2 .4s-.9-1.4-.3-3.1c.6-1.7 1.9-3.7 1.9-3.7-5.4 2.8-15 9.4-15 9.4s2.9-.3 8.2.2c5.2.5 4.9 4.7 4.9 4.7s3.5-1 5.6-1.1c2.1-.1 2.3 2.1 2.3 2.1l.5 3.8s.5-.6 2.6-2.4c1.9-1.5 3.9-1.4 4.4-1.3l-2.7-13z" />
  </g>
  <g class="desktop">
    <path class="st0"
    d="M59.9 24C54.4 11 39.4 4.8 26.4 10.2S7.2 30.7 12.6 43.7c3.6 8.6 11.3 14.2 19.9 15.5-.6-2.1-1.2-4.4-1.7-6.9 1.5 1 3.1 1.8 4.8 2.6 0 0 .1 2.2.3 4.6 1.8 0 3.6-.1 5.3-.5v-.8c.3-1.9 1.1-5.2 1.2-7.4 1.1-1.1 2.1-2.3 2.9-3.7 0 .1 0 .3-.1.4-.6 4.3-1.7 8.8-2.4 10.1-.2.4-.5.9-.8 1.2 1.4-.3 2.7-.8 4.1-1.3A25.66 25.66 0 0059.9 24zm-1.5 3.8c-.4.4-1.3.7-1.5-.6s-.2-2.2-.2-2.2-1.9-3.4-2.7-3.5c-.7 0-5.8 3.5-7.2 5-1.2 1.3-1.4 1.2-1.4 3.5 0 1.7.2 8.2.1 13.1l-8.1 2.2c-6 1.6-7.8 1.8-7.8 1.8l-1-5.8L25.9 28s-3.8-1.4-5.2-1.8c-1.4-.4-2.3-.7-4 .6-1.8 1.3-1.7 3.9-1.7 3.9s.4 1 .5 1.4c0 .5-1.2.4-2 .4s-.9-1.4-.3-3.1c.6-1.7 1.9-3.7 1.9-3.7s1.2-2.3 2.1-2.9c0 0 .1-.3 1.3-.2 1.1.1 7.3.4 7.3.4l.1-2.3c6.7-.9 13.5-1.4 20.2-1.3 0 .6 0 1.2-.1 1.8 0 0 4.4-2 8.1-2 0 0 .4 0 .8.4.3.4 2.4 3 2.7 3.4.2.4 1.2 1.7 1.8 3-.1 0-.6 1.3-1 1.8z" />
  <path class="st1"
    d="M56.5 21.7c.5.6.9 1.1 1 1.3.2.4 1.2 1.7 1.8 3 0 0-.4 1.3-.9 1.8s-1.3.7-1.5-.6-.2-2.2-.2-2.2-1.9-3.4-2.7-3.5c-.7 0-5.8 3.5-7.2 5-1.2 1.3-1.4 1.2-1.4 3.5 0 1.5.2 6.6.1 11.2 1.8.2 4.5.7 5.3 1.9 0 0-.3-7.2 7.8-3.4 0 0 .3-9.8 11.5-7.3.1 0-5.6-7-13.6-10.7zM45.9 19.4c.1-8.5-1.4-16.5-1.4-16.5s-.1-1.3-.9-.2c-.7 1.1-1.2 4-1.2 4-7.4-.6-12.8.2-12.8.2-.8-2.7-2.2-4-2.9-3.7-.6.3-.7 3.3-.7 3.3l-.3 14.2c6.7-.9 13.5-1.4 20.2-1.3z" />
  <path
    d="M45.4 47.1c.1-1.1.2-2.5.2-4.1l-8.1 2.2c-6 1.6-7.8 1.8-7.8 1.8l1.1 5c0 .1 0 .2.1.3 1.5 1 3.1 1.8 4.8 2.6 4.4-2.2 6.9-4.1 6.9-4.1v.1c1-1.1 2-2.4 2.8-3.8z"
    fill="#e55645" />
  <path
    d="M32 16.2c0-.1 1 .7 1.4.9.4.2.6.4.6.6 0 .2-.3.3-.6.3s-.9-.1-1-.3h1.2c.1.1-1.3-1-1.6-1.5zM39.5 16.3l-1.1 1.3c0 .1-.2.3.2.3s1.1-.2 1.2-.3c.1-.1.1-.2-.1-.2s-.7 0-1 .1l.8-1.2c.1 0 .1-.1 0 0zM36.4 22.4s.8-.4 1.1-1c.3-.7 0-.9-.4-1s-1.3 0-1.7.3c-.4.4-.3.7-.1 1 .2.3.8.7 1.1.7z" />
  <path class="st1"
    d="M35.9 23.7s-.2.4-.5.6c-.2.2-.6.4-1 .4-.6 0-1.1-.2-1.5-.4-.2-.1-.4-.3-.5-.4-.2-.2-.4-.3-.4-.3s.8 4.1 2.6 4.8c1.8.7 2.2-.8 2.2-1.1 0-.3 0-2.1-.8-3.2.1-.5 0-.3-.1-.4z" />
  <path
    d="M34.3 24.8c-1.3 0-2.3-1.4-2.4-1.4v-.2h.2s1 1.3 2.1 1.3c.6 0 1.1-.3 1.6-1l.1-.2.1.2s.4.8 1 .8c.5 0 1.1-.4 1.6-1.3 0-.1.1-.1.2 0 .1 0 .1.1 0 .2-.6 1-1.3 1.5-1.9 1.4-.6 0-.9-.5-1.1-.8-.3.7-.9 1-1.5 1z" />
  <circle transform="rotate(-22.68 36.25 34.55)" class="st0" cx="36.3" cy="34.5" r="3.8" />
  <path class="st3"
    d="M41.2 31.5l-3.1 1.3 1.1-5.6-7.5 9.8 3.1-1.3-1.1 5.6 7.5-9.8zm-7.4 3.8l4.1-5.4-.8 4 2-.8-4.1 5.4.8-4-2 .8z" />
  <circle transform="rotate(-22.68 32.44 32.74)" class="st3" cx="32.4" cy="32.7" r="1.1" />
  <circle transform="rotate(-22.68 38.96 37.13)" class="st3" cx="39" cy="37.1" r=".8" />
  <circle transform="rotate(-22.68 39.92 35.4)" class="st3" cx="39.9" cy="35.4" r=".3" />
  <path class="st1"
    d="M45.9 21.2s-2.6 2.3-5.1 5.2-5.3 4.9-5.3 4.9c-.2-.5-1.6-1.5-1.6-1.5s-3.1-2.1-5.2-3.8c-1.2-1-2.4-2.2-3.1-3-.3 0-1.1-.1-2-.1 4.7 7 12 8.8 12 8.8.9-.1 3.3-1.9 5.1-3.3 1.8-1.4 4.8-4.5 6-5.9.6-.7.9-1.4 1.1-2-1.2.3-1.9.7-1.9.7z" />
  <path class="st0"
    d="M65.2 3.5l-8.4 9.4-1.3-2L63.7 0zM62.6 17.3l5.6-4.2-.8-3.7-5.4 4.8zM59.9 49.4l6.2 3.2 3-2.4-6.7-2.7zM2 6l3-3.4 9.3 9-1.2 2.3zM7.4 16.3l-4.7-3.1L.3 17l5.1 2.4zM13.9 52.6l-4.5 3.3 2.8 3.6 4-4z" />
  <path class="st1"
    d="M25.9 28s-3.8-1.4-5.2-1.8c-1.4-.4-2.3-.7-4 .6-1.8 1.3-1.7 3.9-1.7 3.9s.4 1 .5 1.4c0 .5-1.2.4-2 .4s-.9-1.4-.3-3.1c.6-1.7 1.9-3.7 1.9-3.7-5.4 2.8-15 9.4-15 9.4s2.9-.3 8.2.2c5.3.5 5 4.7 5 4.7s3.5-1 5.6-1.1c2.1-.1 2.3 2.1 2.3 2.1l.5 3.9s.5-.6 2.7-2.4c1.9-1.5 3.9-1.4 4.4-1.3L25.9 28z" />
  </g>
  <g class="title">
    /* cat */
  <path class="st2"
    d="M89.6 37.1c-.7-.9-1-2.1-1-3.7v-5.3c0-1.6.3-2.9 1-3.7.7-.8 1.8-1.3 3.4-1.3 1.5 0 2.6.4 3.2 1.1.6.7.9 1.8.9 3.2v1.3h-2.9v-1.4c0-.4 0-.8-.1-1.1 0-.3-.2-.5-.3-.7-.2-.2-.5-.3-.8-.3-.6 0-.9.2-1.1.5-.2.4-.2.9-.2 1.6v6.8c0 .7.1 1.2.3 1.6.2.3.5.5 1 .5s.8-.2 1-.5c.1-.3.2-.9.2-1.6v-1.5h2.9v1.2c0 1.4-.3 2.5-.9 3.3-.6.8-1.7 1.2-3.2 1.2-1.7.1-2.8-.3-3.4-1.2zM101.1 23.3h3.4l2.9 14.9h-2.8l-.6-3.3h-2.4l-.6 3.3h-2.9l3-14.9zm2.6 9.7l-.9-6-.9 6h1.8zM109.5 25.5h-2.3v-2.2h7.6v2.2h-2.3v12.7h-3.1V25.5z" />
    /* energy */
  <path class="st3"
    d="M120.8 23.3h5.8v1.5h-3.7v4.9h3v1.5h-3v5.5h3.7v1.5h-5.8V23.3zM128.3 23.3h1.4l4.2 9.9v-9.9h1.7v14.9h-1.3L130.1 28v10.2h-1.8V23.3zM138 23.3h5.8v1.5h-3.7v4.9h3v1.5h-3v5.5h3.7v1.5H138V23.3zM145.5 23.3h3c1.5 0 2.6.3 3.3.9.7.6 1.1 1.6 1.1 3 0 1.9-.6 3.1-1.8 3.5l2.1 7.5h-2l-2-7h-1.6v7h-2.1V23.3zm2.9 6.4c.9 0 1.5-.2 1.9-.5.4-.4.6-1 .6-1.9 0-.6-.1-1.1-.2-1.4-.1-.3-.4-.6-.7-.8-.3-.2-.8-.2-1.5-.2h-.9v4.9h.8zM155.7 37.1c-.6-.9-.9-2.1-.9-3.8v-5c0-1.2.1-2.1.4-2.8.2-.7.7-1.3 1.2-1.7.6-.4 1.4-.6 2.4-.6 1.4 0 2.4.3 3 1 .6.7.9 1.8.9 3.3v.6h-2v-.5c0-.7 0-1.3-.1-1.6-.1-.4-.3-.7-.5-.9-.3-.2-.7-.3-1.2-.3-.6 0-1 .1-1.3.4-.3.3-.5.6-.5 1.1-.1.4-.1 1-.1 1.8v5.5c0 1.1.1 2 .4 2.5.3.5.8.7 1.6.7s1.3-.3 1.6-.8c.3-.5.4-1.4.4-2.6v-1h-2v-1.5h3.8v7.4h-1.3l-.2-1.7c-.5 1.3-1.4 1.9-2.7 1.9-1.3-.1-2.3-.5-2.9-1.4zM167.1 32.9l-3.2-9.6h1.9l2.3 7.2 2.2-7.2h2l-3.2 9.6v5.3h-2v-5.3z" />
  </g>
</svg>
